<?xml version="1.0" encoding="UTF-8"?>
<svg xmlns="http://www.w3.org/2000/svg" viewBox="0 0 512 512" width="512" height="512">
  <image href="../../../public/charts/boys_0_18.png" x="0" y="0" width="512" height="512" />
  <rect x="220.0" y="360.0" width="1800.0" height="2760.0" fill="none" stroke="#111827" stroke-width="2"/>
  <polyline points="220.0,2447.69 230.0,2404.09 240.0,2361.89 250.0,2321.31 260.0,2282.57 270.0,2245.88 280.0,2211.47 290.0,2179.55 300.0,2150.34 310.0,2124.06 320.0,2100.92 330.0,2080.24 340.0,2061.09 350.0,2043.32 360.0,2026.77 370.0,2011.32 380.0,1996.8 390.0,1983.08 400.0,1970.01 410.0,1957.44 420.0,1945.23 430.0,1933.29 440.0,1921.64 450.0,1910.25 460.0,1899.13 470.0,1888.26 480.0,1877.64 490.0,1867.25 500.0,1857.08 510.0,1847.12 520.0,1837.36 530.0,1827.8 540.0,1818.42 550.0,1809.21 560.0,1800.16 570.0,1791.27 580.0,1782.51 590.0,1773.89 600.0,1765.39 610.0,1757.0 620.0,1748.72 630.0,1740.52 640.0,1732.41 650.0,1724.37 660.0,1716.39 670.0,1708.46 680.0,1700.57 690.0,1692.71 700.0,1684.88 710.0,1677.05 720.0,1669.23 730.0,1661.44 740.0,1653.73 750.0,1646.1 760.0,1638.54 770.0,1631.05 780.0,1623.63 790.0,1616.27 800.0,1608.98 810.0,1601.76 820.0,1594.6 830.0,1587.49 840.0,1580.45 850.0,1573.46 860.0,1566.52 870.0,1559.64 880.0,1552.81 890.0,1546.02 900.0,1539.28 910.0,1532.59 920.0,1525.94 930.0,1519.33 940.0,1512.75 950.0,1506.22 960.0,1499.72 970.0,1493.25 980.0,1486.81 990.0,1480.41 1000.0,1474.02 1010.0,1467.67 1020.0,1461.34 1030.0,1455.03 1040.0,1448.73 1050.0,1442.46 1060.0,1436.2 1070.0,1429.96 1080.0,1423.72 1090.0,1417.5 1100.0,1411.28 1110.0,1405.07 1120.0,1398.87 1130.0,1392.66 1140.0,1386.46 1150.0,1380.26 1160.0,1374.05 1170.0,1367.83 1180.0,1361.61 1190.0,1355.38 1200.0,1349.14 1210.0,1342.89 1220.0,1336.62 1230.0,1330.34 1240.0,1324.05 1250.0,1317.77 1260.0,1311.49 1270.0,1305.21 1280.0,1298.93 1290.0,1292.65 1300.0,1286.38 1310.0,1280.12 1320.0,1273.86 1330.0,1267.6 1340.0,1261.36 1350.0,1255.12 1360.0,1248.9 1370.0,1242.68 1380.0,1236.48 1390.0,1230.28 1400.0,1224.11 1410.0,1217.94 1420.0,1211.8 1430.0,1205.67 1440.0,1199.55 1450.0,1193.46 1460.0,1187.38 1470.0,1181.33 1480.0,1175.29 1490.0,1169.28 1500.0,1163.29 1510.0,1157.33 1520.0,1151.39 1530.0,1145.48 1540.0,1139.59 1550.0,1133.73 1560.0,1127.91 1570.0,1122.11 1580.0,1116.34 1590.0,1110.61 1600.0,1104.9 1610.0,1099.23 1620.0,1093.6 1630.0,1088.0 1640.0,1082.44 1650.0,1076.92 1660.0,1071.43 1670.0,1065.99 1680.0,1060.58 1690.0,1055.22 1700.0,1049.9 1710.0,1044.62 1720.0,1039.38 1730.0,1034.19 1740.0,1029.03 1750.0,1023.91 1760.0,1018.82 1770.0,1013.76 1780.0,1008.74 1790.0,1003.76 1800.0,998.8 1810.0,993.88 1820.0,988.99 1830.0,984.14 1840.0,979.32 1850.0,974.53 1860.0,969.77 1870.0,965.04 1880.0,960.35 1890.0,955.69 1900.0,951.05 1910.0,946.45 1920.0,941.89 1930.0,937.35 1940.0,932.84 1950.0,928.36 1960.0,923.91 1970.0,919.5 1980.0,915.11 1990.0,910.75 2000.0,906.42 2010.0,902.12 2020.0,897.85" fill="none" stroke="#a855f7" stroke-width="3.2" stroke-linejoin="round" stroke-linecap="round" />
  <polyline points="220.0,2412.31 230.0,2368.35 240.0,2325.78 250.0,2284.8 260.0,2245.59 270.0,2208.34 280.0,2173.26 290.0,2140.54 300.0,2110.37 310.0,2082.95 320.0,2058.46 330.0,2036.32 340.0,2015.71 350.0,1996.49 360.0,1978.51 370.0,1961.63 380.0,1945.7 390.0,1930.58 400.0,1916.12 410.0,1902.18 420.0,1888.62 430.0,1875.35 440.0,1862.39 450.0,1849.73 460.0,1837.35 470.0,1825.25 480.0,1813.41 490.0,1801.81 500.0,1790.46 510.0,1779.33 520.0,1768.42 530.0,1757.71 540.0,1747.19 550.0,1736.85 560.0,1726.68 570.0,1716.67 580.0,1706.8 590.0,1697.06 600.0,1687.44 610.0,1677.94 620.0,1668.53 630.0,1659.2 640.0,1649.95 650.0,1640.77 660.0,1631.63 670.0,1622.54 680.0,1613.47 690.0,1604.41 700.0,1595.36 710.0,1586.31 720.0,1577.23 730.0,1568.19 740.0,1559.26 750.0,1550.44 760.0,1541.7 770.0,1533.07 780.0,1524.52 790.0,1516.06 800.0,1507.69 810.0,1499.39 820.0,1491.17 830.0,1483.02 840.0,1474.93 850.0,1466.91 860.0,1458.96 870.0,1451.05 880.0,1443.21 890.0,1435.4 900.0,1427.65 910.0,1419.94 920.0,1412.26 930.0,1404.62 940.0,1397.01 950.0,1389.43 960.0,1381.87 970.0,1374.32 980.0,1366.79 990.0,1359.28 1000.0,1351.77 1010.0,1344.27 1020.0,1336.76 1030.0,1329.25 1040.0,1321.74 1050.0,1314.21 1060.0,1306.67 1070.0,1299.11 1080.0,1291.53 1090.0,1283.92 1100.0,1276.28 1110.0,1268.61 1120.0,1260.9 1130.0,1253.15 1140.0,1245.36 1150.0,1237.51 1160.0,1229.62 1170.0,1221.66 1180.0,1213.65 1190.0,1205.57 1200.0,1197.43 1210.0,1189.21 1220.0,1180.92 1230.0,1172.5 1240.0,1163.91 1250.0,1155.16 1260.0,1146.25 1270.0,1137.2 1280.0,1128.02 1290.0,1118.72 1300.0,1109.3 1310.0,1099.77 1320.0,1090.16 1330.0,1080.46 1340.0,1070.69 1350.0,1060.85 1360.0,1050.96 1370.0,1041.02 1380.0,1031.05 1390.0,1021.06 1400.0,1011.05 1410.0,1001.04 1420.0,991.03 1430.0,981.04 1440.0,971.07 1450.0,961.13 1460.0,951.25 1470.0,941.41 1480.0,931.64 1490.0,921.95 1500.0,912.33 1510.0,902.82 1520.0,893.4 1530.0,884.1 1540.0,874.93 1550.0,865.89 1560.0,856.99 1570.0,848.24 1580.0,839.66 1590.0,831.25 1600.0,823.02 1610.0,814.99 1620.0,807.16 1630.0,799.54 1640.0,792.14 1650.0,784.97 1660.0,778.05 1670.0,771.38 1680.0,764.97 1690.0,758.84 1700.0,752.98 1710.0,747.42 1720.0,742.15 1730.0,737.07 1740.0,732.05 1750.0,727.08 1760.0,722.18 1770.0,717.35 1780.0,712.58 1790.0,707.89 1800.0,703.28 1810.0,698.76 1820.0,694.31 1830.0,689.96 1840.0,685.7 1850.0,681.53 1860.0,677.46 1870.0,673.5 1880.0,669.65 1890.0,665.9 1900.0,662.27 1910.0,658.76 1920.0,655.37 1930.0,652.1 1940.0,648.96 1950.0,645.96 1960.0,643.09 1970.0,640.36 1980.0,637.77 1990.0,635.33 2000.0,633.04 2010.0,630.9 2020.0,628.92" fill="none" stroke="#0891b2" stroke-width="3.2" stroke-linejoin="round" stroke-linecap="round" />
  <polyline points="220.0,2369.85 230.0,2324.49 240.0,2280.55 250.0,2238.19 260.0,2197.62 270.0,2159.01 280.0,2122.55 290.0,2088.42 300.0,2056.8 310.0,2027.88 320.0,2001.85 330.0,1978.11 340.0,1955.87 350.0,1935.03 360.0,1915.45 370.0,1897.01 380.0,1879.6 390.0,1863.1 400.0,1847.39 410.0,1832.35 420.0,1817.85 430.0,1803.78 440.0,1790.08 450.0,1776.75 460.0,1763.77 470.0,1751.11 480.0,1738.76 490.0,1726.71 500.0,1714.94 510.0,1703.42 520.0,1692.15 530.0,1681.11 540.0,1670.28 550.0,1659.65 560.0,1649.19 570.0,1638.89 580.0,1628.74 590.0,1618.71 600.0,1608.79 610.0,1598.97 620.0,1589.22 630.0,1579.54 640.0,1569.89 650.0,1560.28 660.0,1550.67 670.0,1541.06 680.0,1531.42 690.0,1521.75 700.0,1512.01 710.0,1502.21 720.0,1492.31 730.0,1482.4 740.0,1472.57 750.0,1462.82 760.0,1453.14 770.0,1443.53 780.0,1433.99 790.0,1424.52 800.0,1415.11 810.0,1405.76 820.0,1396.46 830.0,1387.22 840.0,1378.04 850.0,1368.9 860.0,1359.8 870.0,1350.75 880.0,1341.74 890.0,1332.77 900.0,1323.83 910.0,1314.92 920.0,1306.05 930.0,1297.19 940.0,1288.37 950.0,1279.56 960.0,1270.77 970.0,1262.0 980.0,1253.24 990.0,1244.48 1000.0,1235.74 1010.0,1227.0 1020.0,1218.26 1030.0,1209.52 1040.0,1200.77 1050.0,1192.01 1060.0,1183.25 1070.0,1174.47 1080.0,1165.68 1090.0,1156.87 1100.0,1148.04 1110.0,1139.18 1120.0,1130.3 1130.0,1121.39 1140.0,1112.44 1150.0,1103.46 1160.0,1094.45 1170.0,1085.39 1180.0,1076.29 1190.0,1067.14 1200.0,1057.94 1210.0,1048.69 1220.0,1039.38 1230.0,1029.97 1240.0,1020.41 1250.0,1010.7 1260.0,1000.85 1270.0,990.88 1280.0,980.79 1290.0,970.6 1300.0,960.31 1310.0,949.92 1320.0,939.46 1330.0,928.92 1340.0,918.32 1350.0,907.67 1360.0,896.97 1370.0,886.23 1380.0,875.47 1390.0,864.7 1400.0,853.91 1410.0,843.12 1420.0,832.34 1430.0,821.59 1440.0,810.86 1450.0,800.16 1460.0,789.51 1470.0,778.92 1480.0,768.39 1490.0,757.93 1500.0,747.55 1510.0,737.26 1520.0,727.08 1530.0,717.0 1540.0,707.04 1550.0,697.2 1560.0,687.5 1570.0,677.95 1580.0,668.55 1590.0,659.31 1600.0,650.25 1610.0,641.36 1620.0,632.67 1630.0,624.17 1640.0,615.89 1650.0,607.82 1660.0,599.97 1670.0,592.36 1680.0,585.0 1690.0,577.88 1700.0,571.03 1710.0,564.45 1720.0,558.15 1730.0,552.03 1740.0,545.98 1750.0,540.01 1760.0,534.11 1770.0,528.29 1780.0,522.56 1790.0,516.91 1800.0,511.34 1810.0,505.87 1820.0,500.49 1830.0,495.21 1840.0,490.02 1850.0,484.94 1860.0,479.96 1870.0,475.09 1880.0,470.33 1890.0,465.68 1900.0,461.14 1910.0,456.72 1920.0,452.42 1930.0,448.24 1940.0,444.19 1950.0,440.27 1960.0,436.48 1970.0,432.82 1980.0,429.29 1990.0,425.91 2000.0,422.67 2010.0,419.57 2020.0,416.62" fill="none" stroke="#dc2626" stroke-width="3.2" stroke-linejoin="round" stroke-linecap="round" />
  <circle cx="220.0" cy="2447.69" r="4" fill="#a855f7" stroke="#ffffff" stroke-width="1"/>
  <circle cx="320.0" cy="2100.92" r="4" fill="#a855f7" stroke="#ffffff" stroke-width="1"/>
  <circle cx="420.0" cy="1945.23" r="4" fill="#a855f7" stroke="#ffffff" stroke-width="1"/>
  <circle cx="720.0" cy="1669.23" r="4" fill="#a855f7" stroke="#ffffff" stroke-width="1"/>
  <circle cx="1220.0" cy="1336.62" r="4" fill="#a855f7" stroke="#ffffff" stroke-width="1"/>
  <circle cx="1720.0" cy="1039.38" r="4" fill="#a855f7" stroke="#ffffff" stroke-width="1"/>
  <circle cx="2020.0" cy="897.85" r="4" fill="#a855f7" stroke="#ffffff" stroke-width="1"/>
  <circle cx="220.0" cy="2412.31" r="4" fill="#0891b2" stroke="#ffffff" stroke-width="1"/>
  <circle cx="320.0" cy="2058.46" r="4" fill="#0891b2" stroke="#ffffff" stroke-width="1"/>
  <circle cx="420.0" cy="1888.62" r="4" fill="#0891b2" stroke="#ffffff" stroke-width="1"/>
  <circle cx="720.0" cy="1577.23" r="4" fill="#0891b2" stroke="#ffffff" stroke-width="1"/>
  <circle cx="1220.0" cy="1180.92" r="4" fill="#0891b2" stroke="#ffffff" stroke-width="1"/>
  <circle cx="1720.0" cy="742.15" r="4" fill="#0891b2" stroke="#ffffff" stroke-width="1"/>
  <circle cx="2020.0" cy="628.92" r="4" fill="#0891b2" stroke="#ffffff" stroke-width="1"/>
  <circle cx="220.0" cy="2369.85" r="4" fill="#dc2626" stroke="#ffffff" stroke-width="1"/>
  <circle cx="320.0" cy="2001.85" r="4" fill="#dc2626" stroke="#ffffff" stroke-width="1"/>
  <circle cx="420.0" cy="1817.85" r="4" fill="#dc2626" stroke="#ffffff" stroke-width="1"/>
  <circle cx="720.0" cy="1492.31" r="4" fill="#dc2626" stroke="#ffffff" stroke-width="1"/>
  <circle cx="1220.0" cy="1039.38" r="4" fill="#dc2626" stroke="#ffffff" stroke-width="1"/>
  <circle cx="1720.0" cy="558.15" r="4" fill="#dc2626" stroke="#ffffff" stroke-width="1"/>
  <circle cx="2020.0" cy="416.62" r="4" fill="#dc2626" stroke="#ffffff" stroke-width="1"/>
</svg>