<?xml version="1.0" encoding="UTF-8"?>
<svg xmlns="http://www.w3.org/2000/svg" viewBox="0 0 192 192" width="192" height="192">
  <image href="../../../public/charts/girls_0_18.png" x="0" y="0" width="192" height="192" />
  <rect x="220.0" y="360.0" width="1800.0" height="2760.0" fill="none" stroke="#111827" stroke-width="2"/>
  <polyline points="220.0,2386.63 230.0,2340.76 240.0,2296.32 250.0,2253.52 260.0,2212.55 270.0,2173.6 280.0,2136.87 290.0,2102.55 300.0,2070.83 310.0,2041.92 320.0,2016.0 330.0,1992.41 340.0,1970.29 350.0,1949.55 360.0,1930.08 370.0,1911.79 380.0,1894.58 390.0,1878.36 400.0,1863.02 410.0,1848.48 420.0,1834.63 430.0,1821.31 440.0,1808.43 450.0,1795.95 460.0,1783.87 470.0,1772.14 480.0,1760.76 490.0,1749.71 500.0,1738.95 510.0,1728.47 520.0,1718.25 530.0,1708.27 540.0,1698.5 550.0,1688.93 560.0,1679.53 570.0,1670.28 580.0,1661.16 590.0,1652.14 600.0,1643.21 610.0,1634.35 620.0,1625.53 630.0,1616.73 640.0,1607.93 650.0,1599.11 660.0,1590.25 670.0,1581.32 680.0,1572.31 690.0,1563.19 700.0,1553.94 710.0,1544.54 720.0,1534.97 730.0,1525.29 740.0,1515.56 750.0,1505.8 760.0,1496.01 770.0,1486.19 780.0,1476.34 790.0,1466.48 800.0,1456.59 810.0,1446.69 820.0,1436.77 830.0,1426.85 840.0,1416.92 850.0,1406.99 860.0,1397.06 870.0,1387.14 880.0,1377.22 890.0,1367.32 900.0,1357.43 910.0,1347.56 920.0,1337.72 930.0,1327.9 940.0,1318.11 950.0,1308.35 960.0,1298.63 970.0,1288.94 980.0,1279.3 990.0,1269.71 1000.0,1260.17 1010.0,1250.67 1020.0,1241.24 1030.0,1231.87 1040.0,1222.56 1050.0,1213.31 1060.0,1204.14 1070.0,1195.04 1080.0,1186.01 1090.0,1177.07 1100.0,1168.21 1110.0,1159.44 1120.0,1150.76 1130.0,1142.18 1140.0,1133.69 1150.0,1125.3 1160.0,1117.02 1170.0,1108.85 1180.0,1100.78 1190.0,1092.84 1200.0,1085.0 1210.0,1077.3 1220.0,1069.71 1230.0,1062.18 1240.0,1054.61 1250.0,1047.02 1260.0,1039.42 1270.0,1031.79 1280.0,1024.16 1290.0,1016.52 1300.0,1008.88 1310.0,1001.25 1320.0,993.63 1330.0,986.02 1340.0,978.44 1350.0,970.88 1360.0,963.35 1370.0,955.85 1380.0,948.4 1390.0,940.99 1400.0,933.63 1410.0,926.32 1420.0,919.08 1430.0,911.9 1440.0,904.79 1450.0,897.76 1460.0,890.8 1470.0,883.93 1480.0,877.15 1490.0,870.46 1500.0,863.88 1510.0,857.4 1520.0,851.03 1530.0,844.77 1540.0,838.63 1550.0,832.62 1560.0,826.74 1570.0,820.99 1580.0,815.38 1590.0,809.92 1600.0,804.6 1610.0,799.44 1620.0,794.44 1630.0,789.6 1640.0,784.93 1650.0,780.44 1660.0,776.13 1670.0,772.0 1680.0,768.06 1690.0,764.31 1700.0,760.76 1710.0,757.42 1720.0,754.29 1730.0,751.27 1740.0,748.27 1750.0,745.3 1760.0,742.37 1770.0,739.46 1780.0,736.6 1790.0,733.78 1800.0,731.01 1810.0,728.3 1820.0,725.64 1830.0,723.04 1840.0,720.51 1850.0,718.05 1860.0,715.67 1870.0,713.36 1880.0,711.14 1890.0,709.0 1900.0,706.96 1910.0,705.01 1920.0,703.16 1930.0,701.42 1940.0,699.79 1950.0,698.27 1960.0,696.87 1970.0,695.6 1980.0,694.45 1990.0,693.43 2000.0,692.54 2010.0,691.8 2020.0,691.2" fill="none" stroke="#a855f7" stroke-width="3.2" stroke-linejoin="round" stroke-linecap="round" />
  <polyline points="220.0,2347.2 230.0,2298.22 240.0,2250.79 250.0,2205.12 260.0,2161.43 270.0,2119.93 280.0,2080.84 290.0,2044.38 300.0,2010.76 310.0,1980.2 320.0,1952.91 330.0,1928.21 340.0,1905.16 350.0,1883.63 360.0,1863.47 370.0,1844.55 380.0,1826.73 390.0,1809.86 400.0,1793.82 410.0,1778.47 420.0,1763.66 430.0,1749.28 440.0,1735.32 450.0,1721.76 460.0,1708.56 470.0,1695.72 480.0,1683.21 490.0,1671.02 500.0,1659.12 510.0,1647.5 520.0,1636.13 530.0,1625.0 540.0,1614.09 550.0,1603.37 560.0,1592.83 570.0,1582.45 580.0,1572.21 590.0,1562.09 600.0,1552.06 610.0,1542.12 620.0,1532.24 630.0,1522.4 640.0,1512.58 650.0,1502.76 660.0,1492.93 670.0,1483.06 680.0,1473.13 690.0,1463.12 700.0,1453.02 710.0,1442.81 720.0,1432.46 730.0,1422.03 740.0,1411.58 750.0,1401.13 760.0,1390.67 770.0,1380.2 780.0,1369.74 790.0,1359.27 800.0,1348.8 810.0,1338.34 820.0,1327.89 830.0,1317.44 840.0,1307.01 850.0,1296.59 860.0,1286.19 870.0,1275.81 880.0,1265.45 890.0,1255.11 900.0,1244.8 910.0,1234.52 920.0,1224.28 930.0,1214.06 940.0,1203.88 950.0,1193.74 960.0,1183.64 970.0,1173.59 980.0,1163.58 990.0,1153.62 1000.0,1143.71 1010.0,1133.86 1020.0,1124.06 1030.0,1114.31 1040.0,1104.63 1050.0,1095.02 1060.0,1085.46 1070.0,1075.98 1080.0,1066.57 1090.0,1057.23 1100.0,1047.96 1110.0,1038.77 1120.0,1029.67 1130.0,1020.64 1140.0,1011.7 1150.0,1002.85 1160.0,994.09 1170.0,985.42 1180.0,976.84 1190.0,968.37 1200.0,959.99 1210.0,951.71 1220.0,943.54 1230.0,935.38 1240.0,927.15 1250.0,918.84 1260.0,910.47 1270.0,902.05 1280.0,893.58 1290.0,885.08 1300.0,876.54 1310.0,867.98 1320.0,859.41 1330.0,850.83 1340.0,842.26 1350.0,833.69 1360.0,825.15 1370.0,816.62 1380.0,808.14 1390.0,799.69 1400.0,791.29 1410.0,782.96 1420.0,774.68 1430.0,766.48 1440.0,758.37 1450.0,750.34 1460.0,742.41 1470.0,734.58 1480.0,726.87 1490.0,719.28 1500.0,711.82 1510.0,704.5 1520.0,697.32 1530.0,690.3 1540.0,683.44 1550.0,676.74 1560.0,670.23 1570.0,663.89 1580.0,657.76 1590.0,651.82 1600.0,646.09 1610.0,640.58 1620.0,635.3 1630.0,630.25 1640.0,625.43 1650.0,620.87 1660.0,616.56 1670.0,612.52 1680.0,608.76 1690.0,605.27 1700.0,602.07 1710.0,599.17 1720.0,596.57 1730.0,594.13 1740.0,591.71 1750.0,589.31 1760.0,586.94 1770.0,584.59 1780.0,582.27 1790.0,580.0 1800.0,577.77 1810.0,575.58 1820.0,573.45 1830.0,571.38 1840.0,569.37 1850.0,567.42 1860.0,565.55 1870.0,563.76 1880.0,562.04 1890.0,560.42 1900.0,558.88 1910.0,557.44 1920.0,556.1 1930.0,554.86 1940.0,553.74 1950.0,552.73 1960.0,551.83 1970.0,551.07 1980.0,550.43 1990.0,549.92 2000.0,549.56 2010.0,549.33 2020.0,549.26" fill="none" stroke="#0891b2" stroke-width="3.2" stroke-linejoin="round" stroke-linecap="round" />
  <polyline points="220.0,2299.89 230.0,2249.35 240.0,2200.38 250.0,2153.19 260.0,2107.98 270.0,2064.96 280.0,2024.33 290.0,1986.29 300.0,1951.06 310.0,1918.84 320.0,1889.83 330.0,1863.38 340.0,1838.6 350.0,1815.37 360.0,1793.55 370.0,1773.01 380.0,1753.62 390.0,1735.23 400.0,1717.72 410.0,1700.96 420.0,1684.8 430.0,1669.12 440.0,1653.86 450.0,1639.01 460.0,1624.54 470.0,1610.44 480.0,1596.68 490.0,1583.25 500.0,1570.13 510.0,1557.3 520.0,1544.74 530.0,1532.44 540.0,1520.37 550.0,1508.52 560.0,1496.87 570.0,1485.39 580.0,1474.08 590.0,1462.9 600.0,1451.85 610.0,1440.91 620.0,1430.05 630.0,1419.25 640.0,1408.51 650.0,1397.8 660.0,1387.09 670.0,1376.38 680.0,1365.64 690.0,1354.86 700.0,1344.01 710.0,1333.09 720.0,1322.06 730.0,1310.98 740.0,1299.93 750.0,1288.9 760.0,1277.9 770.0,1266.92 780.0,1255.97 790.0,1245.05 800.0,1234.16 810.0,1223.29 820.0,1212.46 830.0,1201.66 840.0,1190.9 850.0,1180.17 860.0,1169.47 870.0,1158.82 880.0,1148.2 890.0,1137.62 900.0,1127.07 910.0,1116.58 920.0,1106.12 930.0,1095.7 940.0,1085.33 950.0,1075.01 960.0,1064.73 970.0,1054.5 980.0,1044.32 990.0,1034.19 1000.0,1024.11 1010.0,1014.08 1020.0,1004.1 1030.0,994.18 1040.0,984.31 1050.0,974.5 1060.0,964.75 1070.0,955.05 1080.0,945.42 1090.0,935.84 1100.0,926.33 1110.0,916.88 1120.0,907.49 1130.0,898.17 1140.0,888.92 1150.0,879.73 1160.0,870.6 1170.0,861.55 1180.0,852.57 1190.0,843.66 1200.0,834.82 1210.0,826.06 1220.0,817.37 1230.0,808.66 1240.0,799.85 1250.0,790.93 1260.0,781.93 1270.0,772.85 1280.0,763.7 1290.0,754.49 1300.0,745.23 1310.0,735.93 1320.0,726.6 1330.0,717.24 1340.0,707.88 1350.0,698.51 1360.0,689.16 1370.0,679.82 1380.0,670.51 1390.0,661.23 1400.0,652.0 1410.0,642.83 1420.0,633.72 1430.0,624.69 1440.0,615.74 1450.0,606.89 1460.0,598.15 1470.0,589.51 1480.0,581.0 1490.0,572.62 1500.0,564.39 1510.0,556.31 1520.0,548.39 1530.0,540.64 1540.0,533.07 1550.0,525.7 1560.0,518.52 1570.0,511.56 1580.0,504.81 1590.0,498.29 1600.0,492.02 1610.0,485.99 1620.0,480.22 1630.0,474.72 1640.0,469.5 1650.0,464.56 1660.0,459.92 1670.0,455.59 1680.0,451.57 1690.0,447.88 1700.0,444.52 1710.0,441.51 1720.0,438.86 1730.0,436.39 1740.0,433.94 1750.0,431.52 1760.0,429.12 1770.0,426.76 1780.0,424.43 1790.0,422.15 1800.0,419.91 1810.0,417.72 1820.0,415.59 1830.0,413.52 1840.0,411.51 1850.0,409.57 1860.0,407.71 1870.0,405.92 1880.0,404.21 1890.0,402.6 1900.0,401.07 1910.0,399.64 1920.0,398.31 1930.0,397.08 1940.0,395.97 1950.0,394.97 1960.0,394.09 1970.0,393.33 1980.0,392.7 1990.0,392.2 2000.0,391.84 2010.0,391.62 2020.0,391.54" fill="none" stroke="#dc2626" stroke-width="3.2" stroke-linejoin="round" stroke-linecap="round" />
  <circle cx="220.0" cy="2386.63" r="4" fill="#a855f7" stroke="#ffffff" stroke-width="1"/>
  <circle cx="320.0" cy="2016.0" r="4" fill="#a855f7" stroke="#ffffff" stroke-width="1"/>
  <circle cx="420.0" cy="1834.63" r="4" fill="#a855f7" stroke="#ffffff" stroke-width="1"/>
  <circle cx="720.0" cy="1534.97" r="4" fill="#a855f7" stroke="#ffffff" stroke-width="1"/>
  <circle cx="1220.0" cy="1069.71" r="4" fill="#a855f7" stroke="#ffffff" stroke-width="1"/>
  <circle cx="1720.0" cy="754.29" r="4" fill="#a855f7" stroke="#ffffff" stroke-width="1"/>
  <circle cx="2020.0" cy="691.2" r="4" fill="#a855f7" stroke="#ffffff" stroke-width="1"/>
  <circle cx="220.0" cy="2347.2" r="4" fill="#0891b2" stroke="#ffffff" stroke-width="1"/>
  <circle cx="320.0" cy="1952.91" r="4" fill="#0891b2" stroke="#ffffff" stroke-width="1"/>
  <circle cx="420.0" cy="1763.66" r="4" fill="#0891b2" stroke="#ffffff" stroke-width="1"/>
  <circle cx="720.0" cy="1432.46" r="4" fill="#0891b2" stroke="#ffffff" stroke-width="1"/>
  <circle cx="1220.0" cy="943.54" r="4" fill="#0891b2" stroke="#ffffff" stroke-width="1"/>
  <circle cx="1720.0" cy="596.57" r="4" fill="#0891b2" stroke="#ffffff" stroke-width="1"/>
  <circle cx="2020.0" cy="549.26" r="4" fill="#0891b2" stroke="#ffffff" stroke-width="1"/>
  <circle cx="220.0" cy="2299.89" r="4" fill="#dc2626" stroke="#ffffff" stroke-width="1"/>
  <circle cx="320.0" cy="1889.83" r="4" fill="#dc2626" stroke="#ffffff" stroke-width="1"/>
  <circle cx="420.0" cy="1684.8" r="4" fill="#dc2626" stroke="#ffffff" stroke-width="1"/>
  <circle cx="720.0" cy="1322.06" r="4" fill="#dc2626" stroke="#ffffff" stroke-width="1"/>
  <circle cx="1220.0" cy="817.37" r="4" fill="#dc2626" stroke="#ffffff" stroke-width="1"/>
  <circle cx="1720.0" cy="438.86" r="4" fill="#dc2626" stroke="#ffffff" stroke-width="1"/>
  <circle cx="2020.0" cy="391.54" r="4" fill="#dc2626" stroke="#ffffff" stroke-width="1"/>
</svg>